<svg xmlns="http://www.w3.org/2000/svg" viewBox="0 0 32 32">
  <rect width="32" height="32" rx="7" fill="#1A2744"/>
  <circle cx="16" cy="16" r="14.2" fill="none" stroke="#D4A86A" stroke-width="1.1"/>
  <circle cx="16.00" cy="6.65" r="2.75" fill="#F4EFE6"/>
  <circle cx="16.00" cy="5.37" r="2.5" fill="#1A2744"/>
  <circle cx="22.61" cy="9.39" r="2.75" fill="#F4EFE6"/>
  <circle cx="23.52" cy="8.48" r="2.5" fill="#1A2744"/>
  <circle cx="25.35" cy="16.00" r="2.75" fill="#F4EFE6"/>
  <circle cx="26.63" cy="16.00" r="2.5" fill="#1A2744"/>
  <circle cx="22.61" cy="22.61" r="2.75" fill="#F4EFE6"/>
  <circle cx="23.52" cy="23.52" r="2.5" fill="#1A2744"/>
  <circle cx="16.00" cy="25.35" r="2.75" fill="#F4EFE6"/>
  <circle cx="16.00" cy="26.63" r="2.5" fill="#1A2744"/>
  <circle cx="9.39" cy="22.61" r="2.75" fill="#F4EFE6"/>
  <circle cx="8.48" cy="23.52" r="2.5" fill="#1A2744"/>
  <circle cx="6.65" cy="16.00" r="2.75" fill="#F4EFE6"/>
  <circle cx="5.37" cy="16.00" r="2.5" fill="#1A2744"/>
  <circle cx="9.39" cy="9.39" r="2.75" fill="#F4EFE6"/>
  <circle cx="8.48" cy="8.48" r="2.5" fill="#1A2744"/>
  <circle cx="19.58" cy="7.36" r="0.55" fill="#D4A86A"/>
  <circle cx="24.64" cy="12.42" r="0.55" fill="#D4A86A"/>
  <circle cx="24.64" cy="19.58" r="0.55" fill="#D4A86A"/>
  <circle cx="19.58" cy="24.64" r="0.55" fill="#D4A86A"/>
  <circle cx="12.42" cy="24.64" r="0.55" fill="#D4A86A"/>
  <circle cx="7.36" cy="19.58" r="0.55" fill="#D4A86A"/>
  <circle cx="7.36" cy="12.42" r="0.55" fill="#D4A86A"/>
  <circle cx="12.42" cy="7.36" r="0.55" fill="#D4A86A"/>
  <circle cx="16" cy="16" r="4.6" fill="#1A2744"/>
  <circle cx="16" cy="16" r="3.7" fill="#C45C4A"/>
  <circle cx="16" cy="16" r="4.15" fill="none" stroke="#D4A86A" stroke-width="0.7"/>
</svg>
